#!OML:ASF F:\VICON\USERDATA\INSTALL\rory3\rory3.ASF
:FULLY-SPECIFIED
:DEGREES
1248
root -1.8586 19.5891 -3.36258 -179.599 -130.524 185.716
lowerback 5.84348 2.2217 -6.18175
upperback -5.31587 1.79862 -5.65826
thorax -8.97525 1.00683 -2.8068
lowerneck -18.2346 -8.09734 -13.9685
upperneck -9.01531 -8.16871 16.0777
head 1.53183 -3.50137 6.68543
rclavicle 1.2921e-015 3.33958e-014
rhumerus 90.3074 -34.7423 -37.7143
rradius 27.6213
rwrist 23.9295
rhand -28.0792 -6.62573
rfingers 7.12502
rthumb -1.46236 -36.6005
lclavicle 1.2921e-015 3.33958e-014
lhumerus 29.7788 11.4904 -2.41201
lradius 99.9828
lwrist 2.29786
lhand -27.7817 27.8282
lfingers 7.12502
lthumb -1.17504 57.8047
rfemur -2.16127 4.84285 19.7253
rtibia 19.0382
rfoot 0.646758 -27.2726
rtoes 16.5927
lfemur -21.0626 -5.47624 -3.41996
ltibia 37.8534
lfoot 6.22802 -16.0536
ltoes -14.7371
1249
root -1.89002 19.6308 -3.38693 -179.583 -130.88 185.789
lowerback 5.86291 2.34772 -6.27907
upperback -5.40096 1.94719 -5.67528
thorax -9.08525 1.08577 -2.79861
lowerneck -18.2568 -8.25562 -14.0321
upperneck -9.2726 -8.34201 16.1463
head 1.49023 -3.58496 6.70444
rclavicle 7.21588e-014 -4.6118e-014
rhumerus 91.0043 -34.25 -38.9039
rradius 27.1656
rwrist 25.0031
rhand -27.3214 -6.47162
rfingers 7.12502
rthumb -0.730551 -36.4501
lclavicle 7.21588e-014 -4.6118e-014
lhumerus 30.932 12.6142 -2.42567
lradius 98.8885
lwrist 3.03529
lhand -27.728 28.5182
lfingers 7.12502
lthumb -1.12324 58.495
rfemur -1.86867 4.77229 19.7444
rtibia 18.1667
rfoot 0.876556 -28.2374
rtoes 18.3529
lfemur -21.6286 -5.71496 -3.49397
ltibia 38.3377
lfoot 7.14514 -16.8487
ltoes -13.4127
1250
root -1.92102 19.662 -3.4104 -179.383 -131.284 185.53
lowerback 5.96068 2.3999 -6.20076
upperback -5.51692 2.01737 -5.56851
thorax -9.27063 1.12231 -2.75002
lowerneck -17.9263 -8.3349 -14.2862
upperneck -9.78489 -8.39864 16.3206
head 1.32191 -3.62111 6.81431
rclavicle 8.0309e-014 5.88403e-014
rhumerus 90.6663 -33.8908 -38.5464
rradius 27.0189
rwrist 24.883
rhand -26.5485 -6.54269
rfingers 7.12502
rthumb 0.0159848 -36.5224
lclavicle 8.0309e-014 5.88403e-014
lhumerus 31.9356 13.6494 -2.37885
lradius 97.7794
lwrist 4.05419
lhand -27.6453 28.8131
lfingers 7.12502
lthumb -1.04336 58.7903
rfemur -1.50365 4.6452 20.0093
rtibia 17.3407
rfoot 1.28932 -29.0564
rtoes 19.4674
lfemur -22.1273 -5.83709 -3.33003
ltibia 38.7779
lfoot 8.41116 -17.7494
ltoes -10.8862
1251
root -1.95407 19.6853 -3.42929 -179.251 -131.689 185.448
lowerback 5.84553 2.4379 -6.191
upperback -5.58957 2.08322 -5.49773
thorax -9.28422 1.15815 -2.6868
lowerneck -17.5317 -8.39232 -14.4111
upperneck -10.4582 -8.44833 16.3264
head 1.07805 -3.66457 6.85593
rclavicle -1.98785e-014 -2.8625e-014
rhumerus 90.8578 -33.3154 -38.9178
rradius 26.7724
rwrist 25.4637
rhand -25.7179 -6.29622
rfingers 7.12502
rthumb 0.818175 -36.2744
lclavicle -1.98785e-014 -2.8625e-014
lhumerus 33.0116 14.7615 -2.38383
lradius 96.5408
lwrist 5.12443
lhand -27.7484 29.2267
lfingers 7.12502
lthumb -1.14292 59.2033
rfemur -1.24935 4.48958 20.1178
rtibia 16.6213
rfoot 1.77654 -29.6517
rtoes 19.9358
lfemur -22.67 -5.94598 -3.31099
ltibia 39.1714
lfoot 9.71312 -18.4935
ltoes -10.4219
1252
root -1.98479 19.7025 -3.4476 -179.196 -132.057 185.327
lowerback 5.71654 2.49398 -5.96744
upperback -5.5031 2.19525 -5.59128
thorax -9.09759 1.1937 -2.91353
lowerneck -17.6178 -8.45685 -14.2497
upperneck -10.7804 -8.52751 16.3496
head 1.00177 -3.70889 6.83452
rclavicle 1.08039e-013 3.02153e-014
rhumerus 90.6409 -33.209 -38.894
rradius 26.6606
rwrist 25.5282
rhand -24.9269 -5.90567
rfingers 7.12502
rthumb 1.58219 -35.8795
lclavicle 1.08039e-013 3.02153e-014
lhumerus 34.3647 16.1254 -2.50703
lradius 94.9412
lwrist 5.81154
lhand -28.0375 29.7651
lfingers 7.12502
lthumb -1.42215 59.7401
rfemur -0.893619 4.24161 20.249
rtibia 15.9649
rfoot 2.66383 -29.8976
rtoes 19.8878
lfemur -23.0718 -6.10722 -3.29872
ltibia 39.5474
lfoot 10.5762 -19.1842
ltoes -12.8947
1253
root -2.01272 19.7149 -3.47212 -179.222 -132.55 185.313
lowerback 5.78911 2.50061 -5.9162
upperback -5.47257 2.19952 -5.65878
thorax -9.10219 1.18976 -3.01743
lowerneck -17.8242 -8.48541 -14.0158
upperneck -10.8662 -8.57441 16.297
head 0.999167 -3.73245 6.77185
rclavicle 6.42074e-014 -6.36111e-015
rhumerus 90.2434 -33.1609 -38.5828
rradius 26.6388
rwrist 25.2395
rhand -24.3454 -5.67836
rfingers 7.12502
rthumb 2.14376 -35.6473
lclavicle 6.42074e-014 -6.36111e-015
lhumerus 35.7484 17.3873 -2.68764
lradius 92.9551
lwrist 6.03021
lhand -28.6929 30.2072
lfingers 7.12502
lthumb -2.05516 60.177
rfemur -0.594716 3.9136 20.3191
rtibia 15.4357
rfoot 3.66593 -29.9971
rtoes 19.8588
lfemur -23.5171 -6.39595 -3.36868
ltibia 39.8881
lfoot 11.4361 -19.6433
ltoes -13.2369
1254
root -2.03924 19.7231 -3.49423 -179.203 -133.116 185.191
lowerback 5.94466 2.48672 -5.90035
upperback -5.50695 2.17685 -5.54769
thorax -9.23504 1.18416 -2.91514
lowerneck -17.4137 -8.48411 -14.0981
upperneck -11.4343 -8.5623 16.3298
head 0.776675 -3.74542 6.82109
rclavicle 5.68524e-014 -3.02153e-014
rhumerus 89.9411 -32.8753 -38.2348
rradius 26.6307
rwrist 25.1325
rhand -23.9399 -5.46913
rfingers 7.12502
rthumb 2.5354 -35.4338
lclavicle 5.68524e-014 -3.02153e-014
lhumerus 37.1652 18.5036 -2.59971
lradius 90.8115
lwrist 6.48437
lhand -29.1885 30.5293
lfingers 7.12502
lthumb -2.53376 60.494
rfemur -0.282316 3.6452 20.4517
rtibia 15.0644
rfoot 4.20277 -30.0621
rtoes 20.6528
lfemur -23.907 -6.60789 -3.41191
ltibia 40.2027
lfoot 12.2811 -19.9522
ltoes -11.5647
1255
root -2.06377 19.7246 -3.51569 -179.407 -133.652 185.228
lowerback 6.21752 2.45921 -5.98937
upperback -5.56391 2.11262 -5.41645
thorax -9.46895 1.1663 -2.73529
lowerneck -16.546 -8.48041 -14.7192
upperneck -12.2148 -8.49174 16.791
head 0.472896 -3.7273 7.12014
rclavicle 6.56983e-014 4.29375e-014
rhumerus 89.6598 -32.4466 -37.8328
rradius 26.6246
rwrist 25.1024
rhand -23.4306 -5.36882
rfingers 7.12502
rthumb 3.02725 -35.3271
lclavicle 6.56983e-014 4.29375e-014
lhumerus 38.6406 19.5605 -2.41411
lradius 88.5514
lwrist 6.98866
lhand -28.9326 30.8871
lfingers 7.12502
lthumb -2.28664 60.8545
rfemur 0.114636 3.42187 20.4673
rtibia 14.8354
rfoot 4.44809 -29.9709
rtoes 21.2008
lfemur -24.1188 -6.85709 -3.6201
ltibia 40.5067
lfoot 12.7422 -20.1598
ltoes -10.6257
1256
root -2.09045 19.7208 -3.53192 -179.824 -134.155 185.562
lowerback 6.35574 2.42185 -6.24595
upperback -5.55922 2.03058 -5.32285
thorax -9.56151 1.14819 -2.48836
lowerneck -15.8949 -8.41615 -15.0806
upperneck -12.7703 -8.38511 16.9217
head 0.224001 -3.69053 7.26486
rclavicle 4.22417e-014 8.74653e-014
rhumerus 89.3925 -32.0738 -37.2861
rradius 26.6557
rwrist 24.7942
rhand -22.6582 -5.27459
rfingers 7.12502
rthumb 3.77314 -35.2209
lclavicle 4.22417e-014 8.74653e-014
lhumerus 40.1031 20.7212 -2.21734
lradius 86.2981
lwrist 7.66973
lhand -28.5092 31.3883
lfingers 7.12502
lthumb -1.87773 61.3598
rfemur 0.475082 2.84443 20.2136
rtibia 14.6417
rfoot 5.27624 -29.5501
rtoes 20.2957
lfemur -24.2668 -7.13038 -4.10937
ltibia 40.8294
lfoot 12.999 -20.1986
ltoes -9.78257
1257
root -2.11476 19.7139 -3.54256 -179.992 -134.666 185.651
lowerback 6.36142 2.39075 -6.20117
upperback -5.51701 2.00357 -5.27199
thorax -9.51678 1.13473 -2.452
lowerneck -15.8321 -8.44399 -15.0443
upperneck -12.8732 -8.43201 16.6572
head 0.168686 -3.71644 7.17425
rclavicle 3.37934e-015 2.38542e-014
rhumerus 88.8549 -31.9409 -36.4577
rradius 26.8002
rwrist 24.0838
rhand -21.6512 -4.85817
rfingers 7.12502
rthumb 4.74555 -34.785
lclavicle 3.37934e-015 2.38542e-014
lhumerus 41.7826 21.928 -2.00569
lradius 83.8988
lwrist 8.37836
lhand -28.059 31.752
lfingers 7.12502
lthumb -1.4429 61.7269
rfemur 0.65856 2.21359 20.1385
rtibia 14.6396
rfoot 6.23873 -28.9162
rtoes 18.5965
lfemur -24.4874 -7.4098 -4.43524
ltibia 41.164
lfoot 13.2214 -19.8222
ltoes -8.61552
